<svg width="289" height="98" viewBox="0 0 289 98" fill="none" xmlns="http://www.w3.org/2000/svg">
<path d="M185.615 37.0825V46.4325H198.21V53.3075H185.615V62.85H202.06V70H176.265V29.9325H202.06V37.0825H185.615ZM228.969 54.6825L225.256 43.71C224.981 43.0133 224.688 42.1975 224.376 41.2625C224.064 40.3092 223.753 39.2825 223.441 38.1825C223.166 39.3008 222.873 40.3367 222.561 41.29C222.249 42.2433 221.956 43.0683 221.681 43.765L217.996 54.6825H228.969ZM243.736 70H236.531C235.724 70 235.074 69.8167 234.579 69.45C234.084 69.065 233.708 68.5792 233.451 67.9925L231.086 61.0075H215.851L213.486 67.9925C213.284 68.5058 212.918 68.9733 212.386 69.395C211.873 69.7983 211.231 70 210.461 70H203.201L218.711 29.9325H228.226L243.736 70ZM271.767 37.3025H260.492V70H251.197V37.3025H239.922V29.9325H271.767V37.3025Z" fill="#FDB813"/>
<path d="M74.7477 29.9325L62.3727 70H53.9577L46.4227 45.1675C46.276 44.7825 46.1386 44.3608 46.0102 43.9025C45.8819 43.4258 45.7535 42.9308 45.6252 42.4175C45.4969 42.9308 45.3686 43.4258 45.2402 43.9025C45.1119 44.3608 44.9744 44.7825 44.8277 45.1675L37.1827 70H28.7677L16.3927 29.9325H24.2027C25.0094 29.9325 25.6785 30.1158 26.2102 30.4825C26.7602 30.8492 27.1177 31.335 27.2827 31.94L32.7827 52.84C32.9477 53.5 33.1127 54.2242 33.2777 55.0125C33.4427 55.7825 33.6077 56.5892 33.7727 57.4325C34.1027 55.7092 34.506 54.1783 34.9827 52.84L41.4727 31.94C41.6377 31.4267 41.986 30.9683 42.5177 30.565C43.0677 30.1433 43.7277 29.9325 44.4977 29.9325H47.2477C48.0544 29.9325 48.7052 30.125 49.2002 30.51C49.6952 30.8767 50.0711 31.3533 50.3277 31.94L56.7627 52.84C57.2394 54.1233 57.6427 55.5808 57.9727 57.2125C58.1194 56.3875 58.266 55.6175 58.4127 54.9025C58.5777 54.1692 58.7427 53.4817 58.9077 52.84L64.4077 31.94C64.5544 31.4083 64.9027 30.9408 65.4527 30.5375C66.0027 30.1342 66.6627 29.9325 67.4327 29.9325H74.7477ZM87.3152 41.0425C89.4785 41.0425 91.4494 41.3817 93.2277 42.06C95.006 42.7383 96.5277 43.71 97.7927 44.975C99.076 46.24 100.066 47.78 100.763 49.595C101.478 51.3917 101.835 53.4175 101.835 55.6725C101.835 57.9458 101.478 59.9992 100.763 61.8325C100.066 63.6475 99.076 65.1967 97.7927 66.48C96.5277 67.745 95.006 68.7258 93.2277 69.4225C91.4494 70.1008 89.4785 70.44 87.3152 70.44C85.1335 70.44 83.1444 70.1008 81.3477 69.4225C79.5694 68.7258 78.0294 67.745 76.7277 66.48C75.4444 65.1967 74.4452 63.6475 73.7302 61.8325C73.0335 59.9992 72.6852 57.9458 72.6852 55.6725C72.6852 53.4175 73.0335 51.3917 73.7302 49.595C74.4452 47.78 75.4444 46.24 76.7277 44.975C78.0294 43.71 79.5694 42.7383 81.3477 42.06C83.1444 41.3817 85.1335 41.0425 87.3152 41.0425ZM87.3152 64.115C89.2769 64.115 90.716 63.4275 91.6327 62.0525C92.5677 60.6592 93.0352 58.5508 93.0352 55.7275C93.0352 52.9042 92.5677 50.805 91.6327 49.43C90.716 48.055 89.2769 47.3675 87.3152 47.3675C85.2985 47.3675 83.8227 48.055 82.8877 49.43C81.9527 50.805 81.4852 52.9042 81.4852 55.7275C81.4852 58.5508 81.9527 60.6592 82.8877 62.0525C83.8227 63.4275 85.2985 64.115 87.3152 64.115ZM114.103 45.8825C114.983 44.3425 115.992 43.1325 117.128 42.2525C118.283 41.3725 119.603 40.9325 121.088 40.9325C122.372 40.9325 123.417 41.235 124.223 41.84L123.673 48.11C123.582 48.5133 123.426 48.7883 123.206 48.935C123.004 49.0817 122.72 49.155 122.353 49.155C122.207 49.155 122.014 49.1458 121.776 49.1275C121.537 49.1092 121.29 49.0908 121.033 49.0725C120.777 49.0358 120.511 49.0083 120.236 48.99C119.979 48.9533 119.741 48.935 119.521 48.935C118.274 48.935 117.275 49.265 116.523 49.925C115.79 50.585 115.167 51.5017 114.653 52.675V70H106.128V41.4825H111.188C111.61 41.4825 111.958 41.5192 112.233 41.5925C112.527 41.6658 112.765 41.785 112.948 41.95C113.15 42.0967 113.297 42.2983 113.388 42.555C113.498 42.8117 113.59 43.1233 113.663 43.49L114.103 45.8825ZM137.332 70.44C135.975 70.44 134.774 70.2475 133.729 69.8625C132.703 69.4592 131.832 68.9 131.117 68.185C130.42 67.4517 129.888 66.5717 129.522 65.545C129.155 64.5183 128.972 63.3725 128.972 62.1075V47.3675H126.552C126.112 47.3675 125.736 47.23 125.424 46.955C125.113 46.6617 124.957 46.24 124.957 45.69V42.3625L129.494 41.4825L131.172 34.525C131.392 33.645 132.015 33.205 133.042 33.205H137.497V41.5375H144.564V47.3675H137.497V61.53C137.497 62.19 137.653 62.74 137.964 63.18C138.294 63.6017 138.762 63.8125 139.367 63.8125C139.678 63.8125 139.935 63.785 140.137 63.73C140.357 63.6567 140.54 63.5833 140.687 63.51C140.852 63.4183 140.998 63.345 141.127 63.29C141.273 63.2167 141.438 63.18 141.622 63.18C141.878 63.18 142.08 63.2442 142.227 63.3725C142.392 63.4825 142.557 63.6658 142.722 63.9225L145.307 67.965C144.207 68.79 142.969 69.4133 141.594 69.835C140.219 70.2383 138.798 70.44 137.332 70.44ZM156.763 43.985C157.789 43.105 158.898 42.3992 160.09 41.8675C161.3 41.3175 162.739 41.0425 164.408 41.0425C165.966 41.0425 167.341 41.3175 168.533 41.8675C169.743 42.3992 170.76 43.1508 171.585 44.1225C172.41 45.0758 173.033 46.2217 173.455 47.56C173.877 48.88 174.088 50.3192 174.088 51.8775V70H165.563V51.8775C165.563 50.4842 165.242 49.4025 164.6 48.6325C163.958 47.8442 163.014 47.45 161.768 47.45C160.833 47.45 159.953 47.6517 159.128 48.055C158.321 48.44 157.533 48.9717 156.763 49.65V70H148.238V28.8325H156.763V43.985Z" fill="#D8542D"/>
</svg>
